<?xml version="1.0" encoding="UTF-8" standalone="no"?>
<!DOCTYPE svg PUBLIC "-//W3C//DTD SVG 1.1//EN"
"http://www.w3.org/Graphics/SVG/1.1/DTD/svg11.dtd">
<svg viewBox="0 0 909 1286" version="1.1" xmlns="http://www.w3.org/2000/svg" xmlns:xlink="http://www.w3.org/1999/xlink">
<defs>
<style type="text/css"><![CDATA[
.g1_4{
fill: #FFFFFF;
}
.g2_4{
fill: #F2F2F2;
}
]]></style>
</defs>
<path fill-rule="evenodd" d="M82.5,82.6l744.5,0l0,1121.2l-744.5,0L82.5,82.6Z" class="g1_4" />
<path fill-rule="evenodd" d="M82.5,359.9l744.8,0l0,-20.2l-744.8,0l0,20.2Z" class="g2_4" />
<path fill-rule="evenodd" d="M82.5,359.9l744.8,0l0,-20.2l-744.8,0l0,20.2Z" class="g2_4" />
<path fill-rule="evenodd" d="M82.5,954.6l744.8,0l0,-20.1l-744.8,0l0,20.1Z" class="g2_4" />
<path fill-rule="evenodd" d="M82.5,954.6l744.8,0l0,-20.1l-744.8,0l0,20.1Z" class="g2_4" />
<path fill-rule="evenodd" d="M82.5,378.5l56.2,0l0,-18.6l-56.2,0l0,18.6Z" class="g1_4" />
<path fill-rule="evenodd" d="M138.7,378.5l53.8,0l0,-18.6l-53.8,0l0,18.6Z" class="g1_4" />
<path fill-rule="evenodd" d="M192.5,378.5l7.6,0l0,-18.6l-7.6,0l0,18.6Z" class="g1_4" />
<path fill-rule="evenodd" d="M200.1,378.5l47.4,0l0,-18.6l-47.4,0l0,18.6Z" class="g1_4" />
<path fill-rule="evenodd" d="M247.5,378.5l134.9,0l0,-18.6l-134.9,0l0,18.6Z" class="g1_4" />
<path fill-rule="evenodd" d="M82.5,399.9l28.3,0l0,-18.6l-28.3,0l0,18.6Z" class="g1_4" />
<path fill-rule="evenodd" d="M110.8,399.9l26.7,0l0,-18.6l-26.7,0l0,18.6Z" class="g1_4" />
<path fill-rule="evenodd" d="M137.5,399.9l55,0l0,-18.6l-55,0l0,18.6Z" class="g1_4" />
<path fill-rule="evenodd" d="M192.5,399.9l4.3,0l0,-18.6l-4.3,0l0,18.6Z" class="g1_4" />
<path fill-rule="evenodd" d="M196.8,399.9l50.7,0l0,-18.6l-50.7,0l0,18.6Z" class="g1_4" />
<path fill-rule="evenodd" d="M247.5,399.9l237,0l0,-18.6l-237,0l0,18.6Z" class="g1_4" />
<path fill-rule="evenodd" d="M82.5,421.3l36.8,0l0,-18.6l-36.8,0l0,18.6Z" class="g1_4" />
<path fill-rule="evenodd" d="M119.3,421.3l18.2,0l0,-18.6l-18.2,0l0,18.6Z" class="g1_4" />
<path fill-rule="evenodd" d="M137.5,421.3l55,0l0,-18.6l-55,0l0,18.6Z" class="g1_4" />
<path fill-rule="evenodd" d="M192.5,421.3l7.6,0l0,-18.6l-7.6,0l0,18.6Z" class="g1_4" />
<path fill-rule="evenodd" d="M200.1,421.3l47.4,0l0,-18.6l-47.4,0l0,18.6Z" class="g1_4" />
<path fill-rule="evenodd" d="M247.5,421.3l121.3,0l0,-18.6l-121.3,0l0,18.6Z" class="g1_4" />
<path fill-rule="evenodd" d="M82.5,498.6l72.6,0l0,-18.6l-72.6,0l0,18.6Z" class="g1_4" />
<path fill-rule="evenodd" d="M155.1,498.6l37.4,0l0,-18.6l-37.4,0l0,18.6Z" class="g1_4" />
<path fill-rule="evenodd" d="M192.5,498.6l4.3,0l0,-18.6l-4.3,0l0,18.6Z" class="g1_4" />
<path fill-rule="evenodd" d="M196.8,498.6l50.7,0l0,-18.6l-50.7,0l0,18.6Z" class="g1_4" />
<path fill-rule="evenodd" d="M82.5,973.3l56.2,0l0,-18.7l-56.2,0l0,18.7Z" class="g1_4" />
<path fill-rule="evenodd" d="M138.7,973.3l53.8,0l0,-18.7l-53.8,0l0,18.7Z" class="g1_4" />
<path fill-rule="evenodd" d="M192.5,973.3l7.6,0l0,-18.7l-7.6,0l0,18.7Z" class="g1_4" />
<path fill-rule="evenodd" d="M200.1,973.3l47.4,0l0,-18.7l-47.4,0l0,18.7Z" class="g1_4" />
<path fill-rule="evenodd" d="M247.5,973.3l134.6,0l0,-18.7l-134.6,0l0,18.7Z" class="g1_4" />
<path fill-rule="evenodd" d="M82.5,994.7l28.3,0l0,-18.7l-28.3,0l0,18.7Z" class="g1_4" />
<path fill-rule="evenodd" d="M110.8,994.7l26.7,0l0,-18.7l-26.7,0l0,18.7Z" class="g1_4" />
<path fill-rule="evenodd" d="M137.5,994.7l55,0l0,-18.7l-55,0l0,18.7Z" class="g1_4" />
<path fill-rule="evenodd" d="M192.5,994.7l4.3,0l0,-18.7l-4.3,0l0,18.7Z" class="g1_4" />
<path fill-rule="evenodd" d="M196.8,994.7l50.7,0l0,-18.7l-50.7,0l0,18.7Z" class="g1_4" />
<path fill-rule="evenodd" d="M247.5,994.7l113.8,0l0,-18.7l-113.8,0l0,18.7Z" class="g1_4" />
<path fill-rule="evenodd" d="M82.5,1016.1l36.8,0l0,-18.7l-36.8,0l0,18.7Z" class="g1_4" />
<path fill-rule="evenodd" d="M119.3,1016.1l18.2,0l0,-18.7l-18.2,0l0,18.7Z" class="g1_4" />
<path fill-rule="evenodd" d="M137.5,1016.1l55,0l0,-18.7l-55,0l0,18.7Z" class="g1_4" />
<path fill-rule="evenodd" d="M192.5,1016.1l7.6,0l0,-18.7l-7.6,0l0,18.7Z" class="g1_4" />
<path fill-rule="evenodd" d="M200.1,1016.1l47.4,0l0,-18.7l-47.4,0l0,18.7Z" class="g1_4" />
<path fill-rule="evenodd" d="M247.5,1016.1l129.4,0l0,-18.7l-129.4,0l0,18.7Z" class="g1_4" />
<path fill-rule="evenodd" d="M82.5,1074.7l72.6,0l0,-18.6l-72.6,0l0,18.6Z" class="g1_4" />
<path fill-rule="evenodd" d="M155.1,1074.7l37.4,0l0,-18.6l-37.4,0l0,18.6Z" class="g1_4" />
<path fill-rule="evenodd" d="M192.5,1074.7l4.3,0l0,-18.6l-4.3,0l0,18.6Z" class="g1_4" />
<path fill-rule="evenodd" d="M196.8,1074.7l50.7,0l0,-18.6l-50.7,0l0,18.6Z" class="g1_4" />
</svg>