<?xml version="1.0" encoding="UTF-8" standalone="no"?>
<!DOCTYPE svg PUBLIC "-//W3C//DTD SVG 1.1//EN"
"http://www.w3.org/Graphics/SVG/1.1/DTD/svg11.dtd">
<svg viewBox="0 0 909 1286" version="1.1" xmlns="http://www.w3.org/2000/svg" xmlns:xlink="http://www.w3.org/1999/xlink">
<defs>
<style type="text/css"><![CDATA[
.g1_3{
fill: #FFFFFF;
}
.g2_3{
fill: #F2F2F2;
}
]]></style>
</defs>
<path fill-rule="evenodd" d="M82.5,82.6l744.5,0l0,1121.2l-744.5,0L82.5,82.6Z" class="g1_3" />
<path fill-rule="evenodd" d="M82.5,149.4l744.8,0l0,-20.2l-744.8,0l0,20.2Z" class="g2_3" />
<path fill-rule="evenodd" d="M82.5,556.1l744.8,0l0,-20.2l-744.8,0l0,20.2Z" class="g2_3" />
<path fill-rule="evenodd" d="M82.5,556.1l744.8,0l0,-20.2l-744.8,0l0,20.2Z" class="g2_3" />
<path fill-rule="evenodd" d="M82.5,1005.5l744.8,0l0,-20.1l-744.8,0l0,20.1Z" class="g2_3" />
<path fill-rule="evenodd" d="M82.5,1005.5l744.8,0l0,-20.1l-744.8,0l0,20.1Z" class="g2_3" />
<path fill-rule="evenodd" d="M82.5,168l56.2,0l0,-18.6l-56.2,0l0,18.6Z" class="g1_3" />
<path fill-rule="evenodd" d="M138.7,168l53.8,0l0,-18.6l-53.8,0l0,18.6Z" class="g1_3" />
<path fill-rule="evenodd" d="M192.5,168l7.6,0l0,-18.6l-7.6,0l0,18.6Z" class="g1_3" />
<path fill-rule="evenodd" d="M200.1,168l47.4,0l0,-18.6l-47.4,0l0,18.6Z" class="g1_3" />
<path fill-rule="evenodd" d="M247.5,168l136.3,0l0,-18.6l-136.3,0l0,18.6Z" class="g1_3" />
<path fill-rule="evenodd" d="M82.5,189.4l28.3,0l0,-18.7l-28.3,0l0,18.7Z" class="g1_3" />
<path fill-rule="evenodd" d="M110.8,189.4l26.7,0l0,-18.7l-26.7,0l0,18.7Z" class="g1_3" />
<path fill-rule="evenodd" d="M137.5,189.4l55,0l0,-18.7l-55,0l0,18.7Z" class="g1_3" />
<path fill-rule="evenodd" d="M192.5,189.4l4.3,0l0,-18.7l-4.3,0l0,18.7Z" class="g1_3" />
<path fill-rule="evenodd" d="M196.8,189.4l50.7,0l0,-18.7l-50.7,0l0,18.7Z" class="g1_3" />
<path fill-rule="evenodd" d="M247.5,189.4l91.2,0l0,-18.7l-91.2,0l0,18.7Z" class="g1_3" />
<path fill-rule="evenodd" d="M82.5,210.8l36.8,0l0,-18.7l-36.8,0l0,18.7Z" class="g1_3" />
<path fill-rule="evenodd" d="M119.3,210.8l18.2,0l0,-18.7l-18.2,0l0,18.7Z" class="g1_3" />
<path fill-rule="evenodd" d="M137.5,210.8l55,0l0,-18.7l-55,0l0,18.7Z" class="g1_3" />
<path fill-rule="evenodd" d="M192.5,210.8l7.6,0l0,-18.7l-7.6,0l0,18.7Z" class="g1_3" />
<path fill-rule="evenodd" d="M200.1,210.8l47.4,0l0,-18.7l-47.4,0l0,18.7Z" class="g1_3" />
<path fill-rule="evenodd" d="M247.5,210.8l170.3,0l0,-18.7l-170.3,0l0,18.7Z" class="g1_3" />
<path fill-rule="evenodd" d="M82.5,269.4l72.6,0l0,-18.6l-72.6,0l0,18.6Z" class="g1_3" />
<path fill-rule="evenodd" d="M155.1,269.4l37.4,0l0,-18.6l-37.4,0l0,18.6Z" class="g1_3" />
<path fill-rule="evenodd" d="M192.5,269.4l4.3,0l0,-18.6l-4.3,0l0,18.6Z" class="g1_3" />
<path fill-rule="evenodd" d="M196.8,269.4l50.7,0l0,-18.6l-50.7,0l0,18.6Z" class="g1_3" />
<path fill-rule="evenodd" d="M90.8,556.1l22.9,0l0,-18.7l-22.9,0l0,18.7Z" class="g2_3" />
<path fill-rule="evenodd" d="M82.5,574.7l56.2,0l0,-18.6l-56.2,0l0,18.6Z" class="g1_3" />
<path fill-rule="evenodd" d="M138.7,574.7l53.8,0l0,-18.6l-53.8,0l0,18.6Z" class="g1_3" />
<path fill-rule="evenodd" d="M192.5,574.7l7.6,0l0,-18.6l-7.6,0l0,18.6Z" class="g1_3" />
<path fill-rule="evenodd" d="M200.1,574.7l47.4,0l0,-18.6l-47.4,0l0,18.6Z" class="g1_3" />
<path fill-rule="evenodd" d="M247.5,574.7l136.3,0l0,-18.6l-136.3,0l0,18.6Z" class="g1_3" />
<path fill-rule="evenodd" d="M82.5,596.1l28.3,0l0,-18.7l-28.3,0l0,18.7Z" class="g1_3" />
<path fill-rule="evenodd" d="M110.8,596.1l26.7,0l0,-18.7l-26.7,0l0,18.7Z" class="g1_3" />
<path fill-rule="evenodd" d="M137.5,596.1l55,0l0,-18.7l-55,0l0,18.7Z" class="g1_3" />
<path fill-rule="evenodd" d="M192.5,596.1l4.3,0l0,-18.7l-4.3,0l0,18.7Z" class="g1_3" />
<path fill-rule="evenodd" d="M196.8,596.1l50.7,0l0,-18.7l-50.7,0l0,18.7Z" class="g1_3" />
<path fill-rule="evenodd" d="M247.5,596.1l298.7,0l0,-18.7l-298.7,0l0,18.7Z" class="g1_3" />
<path fill-rule="evenodd" d="M82.5,617.5l36.8,0l0,-18.7l-36.8,0l0,18.7Z" class="g1_3" />
<path fill-rule="evenodd" d="M119.3,617.5l18.2,0l0,-18.7l-18.2,0l0,18.7Z" class="g1_3" />
<path fill-rule="evenodd" d="M137.5,617.5l55,0l0,-18.7l-55,0l0,18.7Z" class="g1_3" />
<path fill-rule="evenodd" d="M192.5,617.5l7.6,0l0,-18.7l-7.6,0l0,18.7Z" class="g1_3" />
<path fill-rule="evenodd" d="M200.1,617.5l47.4,0l0,-18.7l-47.4,0l0,18.7Z" class="g1_3" />
<path fill-rule="evenodd" d="M247.5,617.5l170.3,0l0,-18.7l-170.3,0l0,18.7Z" class="g1_3" />
<path fill-rule="evenodd" d="M82.5,676.1l72.6,0l0,-18.6l-72.6,0l0,18.6Z" class="g1_3" />
<path fill-rule="evenodd" d="M155.1,676.1l37.4,0l0,-18.6l-37.4,0l0,18.6Z" class="g1_3" />
<path fill-rule="evenodd" d="M192.5,676.1l4.3,0l0,-18.6l-4.3,0l0,18.6Z" class="g1_3" />
<path fill-rule="evenodd" d="M196.8,676.1l50.7,0l0,-18.6l-50.7,0l0,18.6Z" class="g1_3" />
<path fill-rule="evenodd" d="M82.5,1024.2l56.2,0l0,-18.7l-56.2,0l0,18.7Z" class="g1_3" />
<path fill-rule="evenodd" d="M138.7,1024.2l53.8,0l0,-18.7l-53.8,0l0,18.7Z" class="g1_3" />
<path fill-rule="evenodd" d="M192.5,1024.2l7.6,0l0,-18.7l-7.6,0l0,18.7Z" class="g1_3" />
<path fill-rule="evenodd" d="M200.1,1024.2l47.4,0l0,-18.7l-47.4,0l0,18.7Z" class="g1_3" />
<path fill-rule="evenodd" d="M247.5,1024.2l136.9,0l0,-18.7l-136.9,0l0,18.7Z" class="g1_3" />
<path fill-rule="evenodd" d="M82.5,1045.6l28.3,0l0,-18.7l-28.3,0l0,18.7Z" class="g1_3" />
<path fill-rule="evenodd" d="M110.8,1045.6l26.7,0l0,-18.7l-26.7,0l0,18.7Z" class="g1_3" />
<path fill-rule="evenodd" d="M137.5,1045.6l55,0l0,-18.7l-55,0l0,18.7Z" class="g1_3" />
<path fill-rule="evenodd" d="M192.5,1045.6l4.3,0l0,-18.7l-4.3,0l0,18.7Z" class="g1_3" />
<path fill-rule="evenodd" d="M196.8,1045.6l50.7,0l0,-18.7l-50.7,0l0,18.7Z" class="g1_3" />
<path fill-rule="evenodd" d="M247.5,1045.6l67.4,0l0,-18.7l-67.4,0l0,18.7Z" class="g1_3" />
<path fill-rule="evenodd" d="M82.5,1066.9l42.9,0l0,-18.6l-42.9,0l0,18.6Z" class="g1_3" />
<path fill-rule="evenodd" d="M125.4,1066.9l12.1,0l0,-18.6l-12.1,0l0,18.6Z" class="g1_3" />
<path fill-rule="evenodd" d="M137.5,1066.9l55,0l0,-18.6l-55,0l0,18.6Z" class="g1_3" />
<path fill-rule="evenodd" d="M192.5,1066.9l7.6,0l0,-18.6l-7.6,0l0,18.6Z" class="g1_3" />
<path fill-rule="evenodd" d="M200.1,1066.9l47.4,0l0,-18.6l-47.4,0l0,18.6Z" class="g1_3" />
<path fill-rule="evenodd" d="M247.5,1066.9l517.8,0l0,-18.6l-517.8,0l0,18.6Z" class="g1_3" />
<path fill-rule="evenodd" d="M82.5,1125.6l72.6,0l0,-18.6l-72.6,0l0,18.6Z" class="g1_3" />
<path fill-rule="evenodd" d="M155.1,1125.6l37.4,0l0,-18.6l-37.4,0l0,18.6Z" class="g1_3" />
<path fill-rule="evenodd" d="M192.5,1125.6l4.3,0l0,-18.6l-4.3,0l0,18.6Z" class="g1_3" />
<path fill-rule="evenodd" d="M196.8,1125.6l50.7,0l0,-18.6l-50.7,0l0,18.6Z" class="g1_3" />
</svg>