<?xml version="1.0" encoding="UTF-8" standalone="no"?>
<!DOCTYPE svg PUBLIC "-//W3C//DTD SVG 1.1//EN"
"http://www.w3.org/Graphics/SVG/1.1/DTD/svg11.dtd">
<svg viewBox="0 0 909 1286" version="1.1" xmlns="http://www.w3.org/2000/svg" xmlns:xlink="http://www.w3.org/1999/xlink">
<defs>
<style type="text/css"><![CDATA[
.g1_5{
fill: #FFFFFF;
}
.g2_5{
fill: #F2F2F2;
}
]]></style>
</defs>
<path fill-rule="evenodd" d="M82.5,82.6l744.5,0l0,1121.2l-744.5,0L82.5,82.6Z" class="g1_5" />
<path fill-rule="evenodd" d="M82.5,600.7l744.5,0l0,22.9l-744.5,0l0,-22.9Z" class="g1_5" />
<path fill-rule="evenodd" d="M82.5,643.7l744.8,0l0,-20.1l-744.8,0l0,20.1Z" class="g2_5" />
<path fill-rule="evenodd" d="M82.5,643.7l744.8,0l0,-20.1l-744.8,0l0,20.1Z" class="g2_5" />
<path fill-rule="evenodd" d="M82.5,1134.9l744.8,0l0,-20.1l-744.8,0l0,20.1Z" class="g2_5" />
<path fill-rule="evenodd" d="M82.5,1134.9l744.8,0l0,-20.1l-744.8,0l0,20.1Z" class="g2_5" />
<path fill-rule="evenodd" d="M82.5,600.7l744.5,0l0,22.9l-744.5,0l0,-22.9Z" class="g1_5" />
<path fill-rule="evenodd" d="M82.5,662.4l56.2,0l0,-18.7l-56.2,0l0,18.7Z" class="g1_5" />
<path fill-rule="evenodd" d="M138.7,662.4l53.8,0l0,-18.7l-53.8,0l0,18.7Z" class="g1_5" />
<path fill-rule="evenodd" d="M192.5,662.4l7.6,0l0,-18.7l-7.6,0l0,18.7Z" class="g1_5" />
<path fill-rule="evenodd" d="M200.1,662.4l47.4,0l0,-18.7l-47.4,0l0,18.7Z" class="g1_5" />
<path fill-rule="evenodd" d="M247.5,662.4l134.6,0l0,-18.7l-134.6,0l0,18.7Z" class="g1_5" />
<path fill-rule="evenodd" d="M82.5,683.8l28.3,0l0,-18.7l-28.3,0l0,18.7Z" class="g1_5" />
<path fill-rule="evenodd" d="M110.8,683.8l26.7,0l0,-18.7l-26.7,0l0,18.7Z" class="g1_5" />
<path fill-rule="evenodd" d="M137.5,683.8l55,0l0,-18.7l-55,0l0,18.7Z" class="g1_5" />
<path fill-rule="evenodd" d="M192.5,683.8l4.3,0l0,-18.7l-4.3,0l0,18.7Z" class="g1_5" />
<path fill-rule="evenodd" d="M196.8,683.8l50.7,0l0,-18.7l-50.7,0l0,18.7Z" class="g1_5" />
<path fill-rule="evenodd" d="M247.5,683.8l154.2,0l0,-18.7l-154.2,0l0,18.7Z" class="g1_5" />
<path fill-rule="evenodd" d="M82.5,705.2l36.8,0l0,-18.7l-36.8,0l0,18.7Z" class="g1_5" />
<path fill-rule="evenodd" d="M119.3,705.2l18.2,0l0,-18.7l-18.2,0l0,18.7Z" class="g1_5" />
<path fill-rule="evenodd" d="M137.5,705.2l55,0l0,-18.7l-55,0l0,18.7Z" class="g1_5" />
<path fill-rule="evenodd" d="M192.5,705.2l7.6,0l0,-18.7l-7.6,0l0,18.7Z" class="g1_5" />
<path fill-rule="evenodd" d="M200.1,705.2l47.4,0l0,-18.7l-47.4,0l0,18.7Z" class="g1_5" />
<path fill-rule="evenodd" d="M247.5,705.2l140.6,0l0,-18.7l-140.6,0l0,18.7Z" class="g1_5" />
<path fill-rule="evenodd" d="M82.5,763.8l72.6,0l0,-18.6l-72.6,0l0,18.6Z" class="g1_5" />
<path fill-rule="evenodd" d="M155.1,763.8l37.4,0l0,-18.6l-37.4,0l0,18.6Z" class="g1_5" />
<path fill-rule="evenodd" d="M192.5,763.8l4.3,0l0,-18.6l-4.3,0l0,18.6Z" class="g1_5" />
<path fill-rule="evenodd" d="M196.8,763.8l50.7,0l0,-18.6l-50.7,0l0,18.6Z" class="g1_5" />
<path fill-rule="evenodd" d="M82.5,1153.6l56.2,0l0,-18.7l-56.2,0l0,18.7Z" class="g1_5" />
<path fill-rule="evenodd" d="M138.7,1153.6l53.8,0l0,-18.7l-53.8,0l0,18.7Z" class="g1_5" />
<path fill-rule="evenodd" d="M192.5,1153.6l55,0l0,-18.7l-55,0l0,18.7Z" class="g1_5" />
<path fill-rule="evenodd" d="M247.5,1153.6l7.6,0l0,-18.7l-7.6,0l0,18.7Z" class="g1_5" />
<path fill-rule="evenodd" d="M255.1,1153.6l47.4,0l0,-18.7l-47.4,0l0,18.7Z" class="g1_5" />
<path fill-rule="evenodd" d="M302.5,1153.6l140.1,0l0,-18.7l-140.1,0l0,18.7Z" class="g1_5" />
<path fill-rule="evenodd" d="M82.5,1175l28.3,0l0,-18.7l-28.3,0l0,18.7Z" class="g1_5" />
<path fill-rule="evenodd" d="M110.8,1175l26.7,0l0,-18.7l-26.7,0l0,18.7Z" class="g1_5" />
<path fill-rule="evenodd" d="M137.5,1175l55,0l0,-18.7l-55,0l0,18.7Z" class="g1_5" />
<path fill-rule="evenodd" d="M192.5,1175l55,0l0,-18.7l-55,0l0,18.7Z" class="g1_5" />
<path fill-rule="evenodd" d="M247.5,1175l4.3,0l0,-18.7l-4.3,0l0,18.7Z" class="g1_5" />
<path fill-rule="evenodd" d="M251.8,1175l50.7,0l0,-18.7l-50.7,0l0,18.7Z" class="g1_5" />
<path fill-rule="evenodd" d="M302.5,1175l113.8,0l0,-18.7l-113.8,0l0,18.7Z" class="g1_5" />
<path fill-rule="evenodd" d="M82.5,1193.6l36.8,0l0,-18.6l-36.8,0l0,18.6Z" class="g1_5" />
<path fill-rule="evenodd" d="M119.3,1193.6l18.2,0l0,-18.6l-18.2,0l0,18.6Z" class="g1_5" />
<path fill-rule="evenodd" d="M137.5,1193.6l55,0l0,-18.6l-55,0l0,18.6Z" class="g1_5" />
<path fill-rule="evenodd" d="M192.5,1193.6l55,0l0,-18.6l-55,0l0,18.6Z" class="g1_5" />
<path fill-rule="evenodd" d="M247.5,1193.6l4.3,0l0,-18.6l-4.3,0l0,18.6Z" class="g1_5" />
<path fill-rule="evenodd" d="M251.8,1193.6l50.7,0l0,-18.6l-50.7,0l0,18.6Z" class="g1_5" />
<path fill-rule="evenodd" d="M302.5,1193.3l133.1,0l0,-16.8l-133.1,0l0,16.8Z" class="g1_5" />
</svg>