<?xml version="1.0" encoding="UTF-8" standalone="no"?>
<!DOCTYPE svg PUBLIC "-//W3C//DTD SVG 1.1//EN"
"http://www.w3.org/Graphics/SVG/1.1/DTD/svg11.dtd">
<svg viewBox="0 0 909 1286" version="1.1" xmlns="http://www.w3.org/2000/svg" xmlns:xlink="http://www.w3.org/1999/xlink">
<defs>
<style type="text/css"><![CDATA[
.g1_2{
fill: #FFFFFF;
}
.g2_2{
fill: #F2F2F2;
}
.g3_2{
fill: #00000A;
}
]]></style>
</defs>
<path fill-rule="evenodd" d="M82.5,82.6l744.5,0l0,1121.2l-744.5,0L82.5,82.6Z" class="g1_2" />
<path fill-rule="evenodd" d="M89.7,114.2l324.2,0l0,-31.6l-324.2,0l0,31.6Z" class="g2_2" />
<path fill-rule="evenodd" d="M413.9,114.2l398.7,0l0,-31.6l-398.7,0l0,31.6Z" class="g2_2" />
<path fill-rule="evenodd" d="M82.5,395l744.8,0l0,-20.1l-744.8,0l0,20.1Z" class="g2_2" />
<path fill-rule="evenodd" d="M82.5,395l744.8,0l0,-20.1l-744.8,0l0,20.1Z" class="g2_2" />
<path fill-rule="evenodd" d="M82.5,921.8l744.8,0l0,-20.2l-744.8,0l0,20.2Z" class="g2_2" />
<path fill-rule="evenodd" d="M413.9,83.1l-0.3,0.4l-323.5,0L89.7,83.1L89.4,82.6l324.9,0l-0.4,0.5Z" class="g3_2" />
<path fill-rule="evenodd" d="M812.6,83.1l-0.3,0.4l-398,0l-0.4,-0.4l-0.3,-0.5l399.5,0l-0.5,0.5Z" class="g3_2" />
<path fill-rule="evenodd" d="M413.9,114.7l-0.3,0.4l-323.5,0l-0.4,-0.4l0.4,-0.5l323.5,0l0.3,0.5Z" class="g3_2" />
<path fill-rule="evenodd" d="M812.6,114.7l-0.3,0.4l-398,0l-0.4,-0.4l0.4,-0.5l398,0l0.3,0.5Z" class="g3_2" />
<path fill-rule="evenodd" d="M413.9,155.5l-0.3,0.4l-323.5,0l-0.4,-0.4L90.1,155l323.5,0l0.3,0.5Z" class="g3_2" />
<path fill-rule="evenodd" d="M812.6,155.5l-0.3,0.4l-398,0l-0.4,-0.4l0.4,-0.5l398,0l0.3,0.5Z" class="g3_2" />
<path fill-rule="evenodd" d="M413.9,196.3l-0.3,0.4l-323.5,0l-0.4,-0.4l0.4,-0.5l323.5,0l0.3,0.5Z" class="g3_2" />
<path fill-rule="evenodd" d="M812.6,196.3l-0.3,0.4l-398,0l-0.4,-0.4l0.4,-0.5l398,0l0.3,0.5Z" class="g3_2" />
<path fill-rule="evenodd" d="M413.9,237.1l-0.3,0.4l-323.5,0l-0.4,-0.4l0.4,-0.5l323.5,0l0.3,0.5Z" class="g3_2" />
<path fill-rule="evenodd" d="M812.6,237.1l-0.3,0.4l-398,0l-0.4,-0.4l0.4,-0.5l398,0l0.3,0.5Z" class="g3_2" />
<path fill-rule="evenodd" d="M413.9,277.8l-0.3,0.5l-323.5,0l-0.4,-0.5l0.4,-0.4l323.5,0l0.3,0.4Z" class="g3_2" />
<path fill-rule="evenodd" d="M812.6,277.8l-0.3,0.5l-398,0l-0.4,-0.5l0.4,-0.4l398,0l0.3,0.4Z" class="g3_2" />
<path fill-rule="evenodd" d="M413.9,318.6l0.4,0.5l-324.9,0l0.3,-0.5l0.4,-0.4l323.5,0l0.3,0.4Z" class="g3_2" />
<path fill-rule="evenodd" d="M812.6,318.6l0.5,0.5l-399.5,0l0.3,-0.5l0.4,-0.4l398,0l0.3,0.4Z" class="g3_2" />
<path fill-rule="evenodd" d="M89.7,83.1l0.4,0.4l0,30.7l-0.4,0.5l-0.3,0.4l0,-32.5l0.3,0.5Z" class="g3_2" />
<path fill-rule="evenodd" d="M89.7,114.7l0.4,0.4l0,39.9l-0.4,0.5l-0.3,0.4l0,-41.7l0.3,0.5Z" class="g3_2" />
<path fill-rule="evenodd" d="M89.7,155.5l0.4,0.4l0,39.9l-0.4,0.5l-0.3,0.4l0,-41.7l0.3,0.5Z" class="g3_2" />
<path fill-rule="evenodd" d="M89.7,196.3l0.4,0.4l0,39.9l-0.4,0.5l-0.3,0.4l0,-41.7l0.3,0.5Z" class="g3_2" />
<path fill-rule="evenodd" d="M89.7,237.1l0.4,0.4l0,39.9l-0.4,0.4l-0.3,0.5l0,-41.7l0.3,0.5Z" class="g3_2" />
<path fill-rule="evenodd" d="M89.7,277.8l0.4,0.5l0,39.9l-0.4,0.4l-0.3,0.5l0,-41.7l0.3,0.4Z" class="g3_2" />
<path fill-rule="evenodd" d="M413.9,83.1l0.4,0.4l0,30.7l-0.4,0.5l-0.3,-0.5l0,-30.7l0.3,-0.4Z" class="g3_2" />
<path fill-rule="evenodd" d="M413.9,114.7l0.4,0.4l0,39.9l-0.4,0.5L413.6,155l0,-39.9l0.3,-0.4Z" class="g3_2" />
<path fill-rule="evenodd" d="M413.9,155.5l0.4,0.4l0,39.9l-0.4,0.5l-0.3,-0.5l0,-39.9l0.3,-0.4Z" class="g3_2" />
<path fill-rule="evenodd" d="M413.9,196.3l0.4,0.4l0,39.9l-0.4,0.5l-0.3,-0.5l0,-39.9l0.3,-0.4Z" class="g3_2" />
<path fill-rule="evenodd" d="M413.9,237.1l0.4,0.4l0,39.9l-0.4,0.4l-0.3,-0.4l0,-39.9l0.3,-0.4Z" class="g3_2" />
<path fill-rule="evenodd" d="M413.9,277.8l0.4,0.5l0,39.9l-0.4,0.4l-0.3,-0.4l0,-39.9l0.3,-0.5Z" class="g3_2" />
<path fill-rule="evenodd" d="M812.6,83.1l0.5,-0.5l0,32.5l-0.5,-0.4l-0.3,-0.5l0,-30.7l0.3,-0.4Z" class="g3_2" />
<path fill-rule="evenodd" d="M812.6,114.7l0.5,-0.5l0,41.7l-0.5,-0.4L812.3,155l0,-39.9l0.3,-0.4Z" class="g3_2" />
<path fill-rule="evenodd" d="M812.6,155.5l0.5,-0.5l0,41.7l-0.5,-0.4l-0.3,-0.5l0,-39.9l0.3,-0.4Z" class="g3_2" />
<path fill-rule="evenodd" d="M812.6,196.3l0.5,-0.5l0,41.7l-0.5,-0.4l-0.3,-0.5l0,-39.9l0.3,-0.4Z" class="g3_2" />
<path fill-rule="evenodd" d="M812.6,237.1l0.5,-0.5l0,41.7l-0.5,-0.5l-0.3,-0.4l0,-39.9l0.3,-0.4Z" class="g3_2" />
<path fill-rule="evenodd" d="M812.6,277.8l0.5,-0.4l0,41.7l-0.5,-0.5l-0.3,-0.4l0,-39.9l0.3,-0.5Z" class="g3_2" />
<path fill-rule="evenodd" d="M82.5,413.7l56.2,0l0,-18.7l-56.2,0l0,18.7Z" class="g1_2" />
<path fill-rule="evenodd" d="M138.7,413.7l53.8,0l0,-18.7l-53.8,0l0,18.7Z" class="g1_2" />
<path fill-rule="evenodd" d="M192.5,413.7l7.6,0l0,-18.7l-7.6,0l0,18.7Z" class="g1_2" />
<path fill-rule="evenodd" d="M200.1,413.7l47.4,0l0,-18.7l-47.4,0l0,18.7Z" class="g1_2" />
<path fill-rule="evenodd" d="M247.5,413.7l139.6,0l0,-18.7l-139.6,0l0,18.7Z" class="g1_2" />
<path fill-rule="evenodd" d="M82.5,435.1l28.3,0l0,-18.7l-28.3,0l0,18.7Z" class="g1_2" />
<path fill-rule="evenodd" d="M110.8,435.1l26.7,0l0,-18.7l-26.7,0l0,18.7Z" class="g1_2" />
<path fill-rule="evenodd" d="M137.5,435.1l55,0l0,-18.7l-55,0l0,18.7Z" class="g1_2" />
<path fill-rule="evenodd" d="M192.5,435.1l4.3,0l0,-18.7l-4.3,0l0,18.7Z" class="g1_2" />
<path fill-rule="evenodd" d="M196.8,435.1l50.7,0l0,-18.7l-50.7,0l0,18.7Z" class="g1_2" />
<path fill-rule="evenodd" d="M247.5,435.1l277.3,0l0,-18.7l-277.3,0l0,18.7Z" class="g1_2" />
<path fill-rule="evenodd" d="M82.5,456.4l36.8,0l0,-18.6l-36.8,0l0,18.6Z" class="g1_2" />
<path fill-rule="evenodd" d="M119.3,456.4l18.2,0l0,-18.6l-18.2,0l0,18.6Z" class="g1_2" />
<path fill-rule="evenodd" d="M137.5,456.4l55,0l0,-18.6l-55,0l0,18.6Z" class="g1_2" />
<path fill-rule="evenodd" d="M192.5,456.4l7.6,0l0,-18.6l-7.6,0l0,18.6Z" class="g1_2" />
<path fill-rule="evenodd" d="M200.1,456.4l47.4,0l0,-18.6l-47.4,0l0,18.6Z" class="g1_2" />
<path fill-rule="evenodd" d="M247.5,456.4l44.5,0l0,-18.6l-44.5,0l0,18.6Z" class="g1_2" />
<path fill-rule="evenodd" d="M82.5,515.1l72.6,0l0,-18.6l-72.6,0l0,18.6Z" class="g1_2" />
<path fill-rule="evenodd" d="M155.1,515.1l37.4,0l0,-18.6l-37.4,0l0,18.6Z" class="g1_2" />
<path fill-rule="evenodd" d="M192.5,515.1l4.3,0l0,-18.6l-4.3,0l0,18.6Z" class="g1_2" />
<path fill-rule="evenodd" d="M196.8,515.1l50.7,0l0,-18.6l-50.7,0l0,18.6Z" class="g1_2" />
<path fill-rule="evenodd" d="M82.5,940.4l56.2,0l0,-18.6l-56.2,0l0,18.6Z" class="g1_2" />
<path fill-rule="evenodd" d="M138.7,940.4l53.8,0l0,-18.6l-53.8,0l0,18.6Z" class="g1_2" />
<path fill-rule="evenodd" d="M192.5,940.4l7.6,0l0,-18.6l-7.6,0l0,18.6Z" class="g1_2" />
<path fill-rule="evenodd" d="M200.1,940.4l47.4,0l0,-18.6l-47.4,0l0,18.6Z" class="g1_2" />
<path fill-rule="evenodd" d="M247.5,940.4l139.6,0l0,-18.6l-139.6,0l0,18.6Z" class="g1_2" />
<path fill-rule="evenodd" d="M82.5,961.8l28.3,0l0,-18.6l-28.3,0l0,18.6Z" class="g1_2" />
<path fill-rule="evenodd" d="M110.8,961.8l26.7,0l0,-18.6l-26.7,0l0,18.6Z" class="g1_2" />
<path fill-rule="evenodd" d="M137.5,961.8l55,0l0,-18.6l-55,0l0,18.6Z" class="g1_2" />
<path fill-rule="evenodd" d="M192.5,961.8l4.3,0l0,-18.6l-4.3,0l0,18.6Z" class="g1_2" />
<path fill-rule="evenodd" d="M196.8,961.8l50.7,0l0,-18.6l-50.7,0l0,18.6Z" class="g1_2" />
<path fill-rule="evenodd" d="M247.5,961.8l275.5,0l0,-18.6l-275.5,0l0,18.6Z" class="g1_2" />
<path fill-rule="evenodd" d="M82.5,983.2l36.8,0l0,-18.6l-36.8,0l0,18.6Z" class="g1_2" />
<path fill-rule="evenodd" d="M119.3,983.2l18.2,0l0,-18.6l-18.2,0l0,18.6Z" class="g1_2" />
<path fill-rule="evenodd" d="M137.5,983.2l55,0l0,-18.6l-55,0l0,18.6Z" class="g1_2" />
<path fill-rule="evenodd" d="M192.5,983.2l7.6,0l0,-18.6l-7.6,0l0,18.6Z" class="g1_2" />
<path fill-rule="evenodd" d="M200.1,983.2l47.4,0l0,-18.6l-47.4,0l0,18.6Z" class="g1_2" />
<path fill-rule="evenodd" d="M247.5,983.2l25.2,0l0,-18.6l-25.2,0l0,18.6Z" class="g1_2" />
<path fill-rule="evenodd" d="M82.5,1041.9l72.6,0l0,-18.7l-72.6,0l0,18.7Z" class="g1_2" />
<path fill-rule="evenodd" d="M155.1,1041.9l37.4,0l0,-18.7l-37.4,0l0,18.7Z" class="g1_2" />
<path fill-rule="evenodd" d="M192.5,1041.9l4.3,0l0,-18.7l-4.3,0l0,18.7Z" class="g1_2" />
<path fill-rule="evenodd" d="M196.8,1041.9l50.7,0l0,-18.7l-50.7,0l0,18.7Z" class="g1_2" />
</svg>